# xmcd
# Copyright (C) 1995-1998 Ti Kan
#
# Track frame offsets:
#       217
#       25067
#       45967
#       66525
#       87442
#       111382
#       122010
#       157285
#       184655
#       210905
#       245435
#       264335
#
# Disc length: 4059 seconds
#
# Revision: 0
# Processed by: cddbd v1.4PL0 Copyright (c) Steve Scherf et al.
# Submitted via: CD-Transfer v1.0
#
DISCID=a30fd90c
DTITLE=Trust - Live
DYEAR=1997
DGENRE=
TTITLE0=Spider And The Fly
TTITLE1=Help Me
TTITLE2=Crossroad Again
TTITLE3=What They Call The Blues
TTITLE4=No Meanin Blues
TTITLE5=You Gotta Move
TTITLE6=Ramblin'
TTITLE7=Bye Bye Johnny
TTITLE8=Before You Accuse Me
TTITLE9=French Kiss Blues
TTITLE10=Blues Power
TTITLE11=Sweet Little Rock And Roller
EXTD=
EXTT0=
EXTT1=
EXTT2=
EXTT3=
EXTT4=
EXTT5=
EXTT6=
EXTT7=
EXTT8=
EXTT9=
EXTT10=
EXTT11=
PLAYORDER=
